<svg xmlns="http://www.w3.org/2000/svg" width="71" height="71" viewBox="0 0 71 71">
  <path id="Subtração_1" data-name="Subtração 1" d="M35,70a35.258,35.258,0,0,1-7.054-.711,34.808,34.808,0,0,1-12.515-5.266,35.1,35.1,0,0,1-12.681-15.4,34.823,34.823,0,0,1-2.039-6.57,35.341,35.341,0,0,1,0-14.107A34.808,34.808,0,0,1,5.978,15.431,35.1,35.1,0,0,1,21.377,2.75,34.825,34.825,0,0,1,27.946.711a35.342,35.342,0,0,1,14.108,0A34.809,34.809,0,0,1,54.569,5.977a35.1,35.1,0,0,1,12.681,15.4,34.825,34.825,0,0,1,2.039,6.57,35.255,35.255,0,0,1-.919,17.64A35.1,35.1,0,0,1,47.938,67.531V42.446a8.534,8.534,0,0,0,4.393,1.227h.028a9.066,9.066,0,0,0,4.169-1.124,8.5,8.5,0,0,0-.375-15.094,9.71,9.71,0,0,0-3.793-.931c-.117,0-.242,0-.37,0a5.234,5.234,0,0,0-2.057.366,5.144,5.144,0,0,0-1.249.728,5.461,5.461,0,0,0-.745.712v-1.8H43.577V68.942A35.139,35.139,0,0,1,35,70ZM32.215,33.116c-.215,0-.42.009-.626.029a11.388,11.388,0,0,0-2.282.379,4.654,4.654,0,0,0-2.2,1.363,5.078,5.078,0,0,0-1.219,3.4,5.456,5.456,0,0,0,1.263,3.527,6.129,6.129,0,0,0,4.441,1.872c.28.02.6.044.928.044a4.352,4.352,0,0,0,2.293-.566,4.669,4.669,0,0,0,1.677-2.047V43.69h4.192V32.858a4.632,4.632,0,0,0-.613-2.335,8.023,8.023,0,0,0-6.252-3.99c-.17-.009-.341-.014-.507-.014a7.738,7.738,0,0,0-3.092.615,7.287,7.287,0,0,0-2.066,1.353,7.7,7.7,0,0,0-1.155,1.353,5.083,5.083,0,0,0-.359.615l2.807,1.655a4.278,4.278,0,0,1,3.145-1.374,4.5,4.5,0,0,1,1.273.192h0a3.806,3.806,0,0,1,1.644.891,3.472,3.472,0,0,1,.8,1.169,1.517,1.517,0,0,1,.182.622c-.329-.051-.709-.1-1.11-.161A24.438,24.438,0,0,0,32.215,33.116Zm-22.157-6.6.048,4.365h6.936L9.16,43.689H24V39.365h-6.96l7.712-12.846ZM32.14,39.555a2.507,2.507,0,0,1-.649-.08,1.847,1.847,0,0,1-.626-.3,1.919,1.919,0,0,1-.347-.321,1.122,1.122,0,0,1-.16-1.27,1.661,1.661,0,0,1,.216-.333,1.88,1.88,0,0,1,.981-.6,4.4,4.4,0,0,1,1.181-.136c.263,0,.518.014.724.025a7.494,7.494,0,0,1,2.806.719,5.029,5.029,0,0,1-.946,1.091,4.839,4.839,0,0,1-2.174,1.083A5.272,5.272,0,0,1,32.14,39.555Zm19.993-.247a4.2,4.2,0,1,1,1.64-.331A4.189,4.189,0,0,1,52.133,39.308Z" transform="translate(0.5 0.5)" fill="#181f75" stroke="rgba(0,0,0,0)" stroke-miterlimit="10" stroke-width="1"/>
</svg>
